<?xml version="1.0" encoding="UTF-8" standalone="no"?>
<!-- Created with Inkscape (http://www.inkscape.org/) -->

<svg
   width="500"
   height="500"
   viewBox="0 0 132.29166 132.29167"
   version="1.1"
   id="svg1"
   sodipodi:docname="man-generic.svg"
   inkscape:version="1.3 (0e150ed6c4, 2023-07-21)"
   xmlns:inkscape="http://www.inkscape.org/namespaces/inkscape"
   xmlns:sodipodi="http://sodipodi.sourceforge.net/DTD/sodipodi-0.dtd"
   xmlns="http://www.w3.org/2000/svg"
   xmlns:svg="http://www.w3.org/2000/svg">
  <sodipodi:namedview
     id="namedview1"
     pagecolor="#505050"
     bordercolor="#eeeeee"
     borderopacity="1"
     inkscape:showpageshadow="0"
     inkscape:pageopacity="0"
     inkscape:pagecheckerboard="0"
     inkscape:deskcolor="#505050"
     inkscape:zoom="0.7198347"
     inkscape:cx="66.681975"
     inkscape:cy="159.0643"
     inkscape:window-width="1920"
     inkscape:window-height="1017"
     inkscape:window-x="1358"
     inkscape:window-y="-8"
     inkscape:window-maximized="1"
     inkscape:current-layer="g30" />
  <defs
     id="defs1" />
  <g
     id="layer1">
    <circle
       style="fill:#dddfdf;stroke-width:1.11127;fill-opacity:1"
       cx="66.145828"
       cy="66.145828"
       r="66.145828"
       id="circle26" />
    <g
       id="g33"
       transform="matrix(1.1112651,0,0,1.1112651,-59.57604,-211.67045)">
      <g
         id="g30">
        <path
           style="fill:#484848;fill-opacity:1"
           d="m 150.502,286.784 c -2.075,-7.379 -7.828,-13.154 -15.199,-15.258 l -13.597,-3.88 h -8.572 -8.572 l -13.597,3.88 c -7.371,2.103 -13.124,7.878 -15.199,15.258 l -3.741,6.239 c 10.686,10.214 25.159,16.5 41.11,16.5 15.95,0 30.423,-6.286 41.109,-16.5 z"
           id="path26" />
        <path
           style="fill:#f0f2f2"
           d="m 121.144,256.706 h -8.011 -8.011 l -2.525,13.217 c 0,0 4.52,4.738 10.535,4.988 6.015,-0.25 10.535,-4.988 10.535,-4.988 z"
           id="path27" />
        <path
           style="fill:#ffffff"
           d="m 131.054,238.161 c 0,10.833 -8.023,25.341 -17.921,25.341 -9.897,0 -17.921,-14.508 -17.921,-25.341 0,-10.833 8.023,-19.615 17.921,-19.615 9.898,-0.001 17.921,8.781 17.921,19.615 z"
           id="path28" />
        <path
           style="fill:#ffffff"
           d="m 97.482,239.673 c -0.085,2.117 -1.345,4.906 -2.758,4.849 -1.413,-0.057 -2.444,-2.938 -2.359,-5.055 0.085,-2.117 1.3,-3.787 2.713,-3.73 1.413,0.057 2.49,1.819 2.404,3.936 z"
           id="path29" />
        <path
           style="fill:#ffffff"
           d="m 133.572,239.485 c 0.072,2.117 -0.978,4.992 -2.391,5.04 -1.413,0.048 -2.655,-2.749 -2.727,-4.867 -0.072,-2.118 1.016,-3.873 2.429,-3.921 1.413,-0.048 2.617,1.63 2.689,3.748 z"
           id="path30" />
      </g>
      <path
         style="fill:none"
         d="m 120.662,225.001 c 0.22,0.627 0.74,1.11 1.317,1.44 0.577,0.33 1.217,0.529 1.84,0.759 0.767,0.284 1.526,0.626 2.159,1.144 0.633,0.518 1.135,1.233 1.264,2.042"
         id="path31" />
      <path
         style="fill:#383838"
         d="m 99.298,219.299 c -3.065,6.995 9.43,6.624 12.944,6.207 0.876,-0.104 1.842,-0.395 2.708,-0.244 0.963,0.167 1.907,0.67 2.911,0.826 2.185,0.338 4.451,0.17 6.556,-0.51 0.482,-0.155 1.019,-0.334 1.474,-0.112 0.275,0.135 0.464,0.394 0.639,0.645 0.826,1.19 1.592,2.45 1.97,3.848 0.536,1.979 0.258,4.071 0.152,6.118 -0.066,1.269 -0.157,5.766 1.487,6.067 0.25,-2.13 0.496,-4.274 0.744,-6.409 0,0 1.78,-6.437 1.152,-9.806 -0.981,-5.263 -4.793,-11.786 -20.009,-11.624 -10.58,0.115 -12.72,4.976 -12.728,4.994 z"
         id="path32" />
      <path
         style="fill:#383838"
         d="m 103.667,223.006 c -0.03,0.167 -0.112,0.327 -0.258,0.474 -0.366,0.368 -0.913,0.466 -1.397,0.652 -1.539,0.592 -2.485,2.11 -3.322,3.531 -0.537,0.913 -1.089,1.871 -1.156,2.928 -0.092,1.448 0.714,2.714 0.909,4.112 0.153,1.102 -0.11,2.111 -0.413,3.162 -0.141,0.49 -1.21,4.71 -2.081,4.277 l -0.743,-6.404 c 0,0 -1.78,-6.437 -1.152,-9.806 0.607,-3.256 2.217,-7.219 6.268,-6.113 0.829,0.225 3.57,1.928 3.345,3.187 z"
         id="path33" />
    </g>
  </g>
</svg>
