<?xml version="1.0" encoding="UTF-8" standalone="no"?>
<!-- Created with Inkscape (http://www.inkscape.org/) -->

<svg
   width="500"
   height="500"
   viewBox="0 0 132.29166 132.29167"
   version="1.1"
   id="svg1"
   sodipodi:docname="man-old.svg"
   inkscape:version="1.3 (0e150ed6c4, 2023-07-21)"
   xmlns:inkscape="http://www.inkscape.org/namespaces/inkscape"
   xmlns:sodipodi="http://sodipodi.sourceforge.net/DTD/sodipodi-0.dtd"
   xmlns="http://www.w3.org/2000/svg"
   xmlns:svg="http://www.w3.org/2000/svg">
  <sodipodi:namedview
     id="namedview1"
     pagecolor="#505050"
     bordercolor="#eeeeee"
     borderopacity="1"
     inkscape:showpageshadow="0"
     inkscape:pageopacity="0"
     inkscape:pagecheckerboard="0"
     inkscape:deskcolor="#505050"
     inkscape:zoom="1.642"
     inkscape:cx="249.69549"
     inkscape:cy="250"
     inkscape:window-width="1920"
     inkscape:window-height="1017"
     inkscape:window-x="1358"
     inkscape:window-y="-8"
     inkscape:window-maximized="1"
     inkscape:current-layer="layer1" />
  <defs
     id="defs1" />
  <g
     id="layer1">
    <circle
       style="fill:#006da4;stroke-width:1.11127;fill-opacity:0.56862748"
       cx="66.145828"
       cy="66.145828"
       r="66.145828"
       id="circle26" />
    <g
       id="g33"
       transform="matrix(1.1112651,0,0,1.1112651,-59.57604,-211.67045)">
      <g
         id="g30">
        <path
           style="fill:#003e63;fill-opacity:1"
           d="m 150.502,286.784 c -2.075,-7.379 -7.828,-13.154 -15.199,-15.258 l -13.597,-3.88 h -8.572 -8.572 l -13.597,3.88 c -7.371,2.103 -13.124,7.878 -15.199,15.258 l -3.741,6.239 c 10.686,10.214 25.159,16.5 41.11,16.5 15.95,0 30.423,-6.286 41.109,-16.5 z"
           id="path26" />
        <path
           style="fill:#f0f2f2"
           d="m 121.144,256.706 h -8.011 -8.011 l -2.525,13.217 c 0,0 4.52,4.738 10.535,4.988 6.015,-0.25 10.535,-4.988 10.535,-4.988 z"
           id="path27" />
        <path
           style="fill:#ffffff"
           d="m 131.054,238.161 c 0,10.833 -8.023,25.341 -17.921,25.341 -9.897,0 -17.921,-14.508 -17.921,-25.341 0,-10.833 8.023,-19.615 17.921,-19.615 9.898,-0.001 17.921,8.781 17.921,19.615 z"
           id="path28" />
        <path
           style="fill:#ffffff"
           d="m 97.482,239.673 c -0.085,2.117 -1.345,4.906 -2.758,4.849 -1.413,-0.057 -2.444,-2.938 -2.359,-5.055 0.085,-2.117 1.3,-3.787 2.713,-3.73 1.413,0.057 2.49,1.819 2.404,3.936 z"
           id="path29" />
        <path
           style="fill:#ffffff"
           d="m 133.572,239.485 c 0.072,2.117 -0.978,4.992 -2.391,5.04 -1.413,0.048 -2.655,-2.749 -2.727,-4.867 -0.072,-2.118 1.016,-3.873 2.429,-3.921 1.413,-0.048 2.617,1.63 2.689,3.748 z"
           id="path30" />
      </g>
      <path
         style="fill:none"
         d="m 120.662,225.001 c 0.22,0.627 0.74,1.11 1.317,1.44 0.577,0.33 1.217,0.529 1.84,0.759 0.767,0.284 1.526,0.626 2.159,1.144 0.633,0.518 1.135,1.233 1.264,2.042"
         id="path31" />
      <path
         style="fill:#003554;fill-opacity:1"
         d="m 121.67568,223.60755 c 0.03,0.167 0.112,0.327 0.258,0.474 0.366,0.368 0.913,0.466 1.397,0.652 1.539,0.592 2.485,2.11 3.322,3.531 0.537,0.913 1.089,1.871 1.156,2.928 0.092,1.448 -0.714,2.714 -0.909,4.112 -0.153,1.102 0.11,2.111 0.413,3.162 0.141,0.49 1.21,4.71 2.081,4.277 l 0.743,-6.404 c 0,0 2.30623,-1.35006 1.67823,-4.71906 -0.607,-3.256 -3.38641,-10.72724 -7.43741,-9.62124 -0.829,0.225 -2.92682,0.3493 -2.70182,1.6083 z"
         id="path33-0" />
      <path
         style="fill:#003554;fill-opacity:1"
         d="m 104.22901,223.55675 c -0.03,0.167 -0.112,0.327 -0.258,0.474 -0.366,0.368 -0.913,0.466 -1.397,0.652 -1.539,0.592 -2.485,2.11 -3.322003,3.531 -0.537,0.913 -1.089,1.871 -1.156,2.928 -0.092,1.448 0.714,2.714 0.909,4.112 0.153,1.102 -0.11,2.111 -0.413,3.162 -0.141,0.49 -1.21,4.71 -2.081,4.277 l -0.743,-6.404 c 0,0 -2.30623,-1.35006 -1.67823,-4.71906 0.607,-3.256 3.38641,-10.72724 7.437413,-9.62124 0.829,0.225 2.92682,0.3493 2.70182,1.6083 z"
         id="path33-0-3" />
    </g>
    <path
       style="fill:#e6595d;stroke-width:0.264583"
       d="M 58.350345,35.285878 H 73.787917"
       id="path1" />
    <path
       style="fill:#e6595d;stroke-width:0.264583"
       d="m 62.944861,33.402127 11.118728,2.297258"
       id="path2" />
    <path
       style="fill:#e6595d;stroke-width:0.264583"
       d="m 56.926045,35.010209 17.849694,0.02296"
       id="path3" />
    <path
       style="fill:#010000;fill-opacity:1;stroke-width:0.264583"
       d="m 57.406526,35.119669 1.705626,-0.779716"
       id="path4" />
    <g
       id="g8" />
  </g>
</svg>
