<?xml version="1.0" encoding="UTF-8" standalone="no"?>
<!-- Created with Inkscape (http://www.inkscape.org/) -->

<svg
   width="500"
   height="500"
   viewBox="0 0 132.29166 132.29167"
   version="1.1"
   id="svg1"
   sodipodi:docname="man.svg"
   inkscape:version="1.3 (0e150ed6c4, 2023-07-21)"
   xmlns:inkscape="http://www.inkscape.org/namespaces/inkscape"
   xmlns:sodipodi="http://sodipodi.sourceforge.net/DTD/sodipodi-0.dtd"
   xmlns="http://www.w3.org/2000/svg"
   xmlns:svg="http://www.w3.org/2000/svg">
  <sodipodi:namedview
     id="namedview1"
     pagecolor="#505050"
     bordercolor="#eeeeee"
     borderopacity="1"
     inkscape:showpageshadow="0"
     inkscape:pageopacity="0"
     inkscape:pagecheckerboard="0"
     inkscape:deskcolor="#505050"
     inkscape:zoom="0.70710678"
     inkscape:cx="209.30361"
     inkscape:cy="236.17367"
     inkscape:window-width="958"
     inkscape:window-height="1008"
     inkscape:window-x="1359"
     inkscape:window-y="0"
     inkscape:window-maximized="0"
     inkscape:current-layer="svg1" />
  <defs
     id="defs1" />
  <circle
     style="fill:#006da4;stroke-width:1.11127;fill-opacity:0.56862748"
     cx="66.145828"
     cy="66.245827"
     r="66.145828"
     id="circle26" />
  <path
     style="fill:#003e63;fill-opacity:1;stroke-width:1.11127"
     d="M 107.67158,107.1226 C 105.36571,98.922575 98.972598,92.505019 90.781463,90.166918 L 75.671591,85.855209 h -9.525764 -9.525765 l -15.109871,4.311709 c -8.191135,2.33699 -14.584243,8.754546 -16.890118,16.955682 l -4.157243,6.93318 c 11.874979,11.35047 27.958318,18.33588 45.684108,18.33588 17.724678,0 33.808018,-6.98541 45.683002,-18.33588 z"
     id="path26" />
  <path
     style="fill:#f0f2f2;stroke-width:1.11127"
     d="M 75.04706,73.697969 H 66.144716 57.242371 L 54.436426,88.38556 c 0,0 5.022919,5.265174 11.707178,5.54299 6.68426,-0.277816 11.707178,-5.54299 11.707178,-5.54299 z"
     id="path27" />
  <path
     style="fill:#ffffff;stroke-width:1.11127"
     d="m 86.059697,53.089557 c 0,12.038335 -8.915679,28.160569 -19.914981,28.160569 -10.998191,0 -19.914982,-16.122234 -19.914982,-28.160569 0,-12.038334 8.91568,-21.797464 19.914982,-21.797464 10.999302,-0.0011 19.914981,9.758018 19.914981,21.797464 z"
     id="path28" />
  <path
     style="fill:#ffffff;stroke-width:1.11127"
     d="m 48.752305,54.76979 c -0.09446,2.352549 -1.494651,5.451867 -3.064869,5.388525 -1.570217,-0.06334 -2.715932,-3.264897 -2.621474,-5.617445 0.09446,-2.352549 1.444645,-4.208361 3.014862,-4.145019 1.570218,0.06334 2.76705,2.021391 2.671481,4.373939 z"
     id="path29" />
  <path
     style="fill:#ffffff;stroke-width:1.11127"
     d="m 88.857863,54.560872 c 0.08001,2.352549 -1.086817,5.547436 -2.657035,5.600777 -1.570218,0.05334 -2.950409,-3.054868 -3.03042,-5.408528 -0.08001,-2.353659 1.129045,-4.303929 2.699263,-4.35727 1.570218,-0.05334 2.908181,1.811362 2.988192,4.165021 z"
     id="path30" />
  <path
     style="fill:none;stroke-width:1.11127"
     d="m 74.51143,38.465309 c 0.244479,0.696763 0.822337,1.233504 1.463537,1.600222 0.6412,0.366717 1.352409,0.587859 2.044727,0.84345 0.852341,0.315599 1.695791,0.695652 2.399222,1.271287 0.703431,0.575635 1.261286,1.37019 1.404639,2.269203"
     id="path31" />
  <path
     style="fill:#003554;fill-opacity:1;stroke-width:1.11127"
     d="m 50.770363,32.128875 c -3.406028,7.7733 10.47923,7.36102 14.384215,6.897623 0.973469,-0.115572 2.046951,-0.43895 3.009306,-0.271149 1.070149,0.185581 2.119183,0.744548 3.234893,0.917905 2.428114,0.375608 4.946241,0.188915 7.285454,-0.566745 0.53563,-0.172246 1.132379,-0.371163 1.638005,-0.124462 0.305598,0.150021 0.515627,0.437838 0.710098,0.716766 0.917905,1.322405 1.769134,2.7226 2.189192,4.276148 0.595638,2.199194 0.286707,4.52396 0.168913,6.79872 -0.07334,1.410195 -0.174469,6.407555 1.652451,6.742045 0.277816,-2.366994 0.551187,-4.749547 0.826781,-7.122098 0,0 1.978052,-7.153213 1.280177,-10.897065 C 86.059697,33.647975 81.823555,26.399192 64.914545,26.579217 53.15736,26.707013 50.779253,32.108872 50.770363,32.128875 Z"
     id="path32" />
  <path
     style="fill:#003554;fill-opacity:1;stroke-width:1.11127"
     d="m 55.62548,36.248335 c -0.03334,0.185581 -0.124462,0.363384 -0.286706,0.52674 -0.406723,0.408945 -1.014585,0.517849 -1.552438,0.724544 -1.710237,0.657869 -2.761493,2.34477 -3.691622,3.923877 -0.59675,1.014585 -1.210168,2.079177 -1.284623,3.253785 -0.102236,1.609112 0.793444,3.015973 1.01014,4.569522 0.170024,1.224614 -0.122239,2.34588 -0.458952,3.51382 -0.156689,0.54452 -1.344631,5.234059 -2.312543,4.752881 l -0.82567,-7.116542 c 0,0 -1.978052,-7.153213 -1.280177,-10.897065 0.674538,-3.61828 2.463674,-8.022223 6.965409,-6.793164 0.921239,0.250035 3.967217,2.142519 3.717182,3.541602 z"
     id="path33" />
</svg>
