<?xml version="1.0" encoding="UTF-8" standalone="no"?>
<!-- Generator: Adobe Illustrator 24.2.2, SVG Export Plug-In . SVG Version: 6.00 Build 0)  -->

<svg
   version="1.1"
   id="Layer_1"
   x="0px"
   y="0px"
   viewBox="0 0 316.5 393"
   xml:space="preserve"
   sodipodi:docname="pdf.svg"
   width="316.5"
   height="393"
   inkscape:version="1.3 (0e150ed6c4, 2023-07-21)"
   xmlns:inkscape="http://www.inkscape.org/namespaces/inkscape"
   xmlns:sodipodi="http://sodipodi.sourceforge.net/DTD/sodipodi-0.dtd"
   xmlns="http://www.w3.org/2000/svg"
   xmlns:svg="http://www.w3.org/2000/svg"><defs
   id="defs6" /><sodipodi:namedview
   id="namedview6"
   pagecolor="#505050"
   bordercolor="#eeeeee"
   borderopacity="1"
   inkscape:showpageshadow="0"
   inkscape:pageopacity="0"
   inkscape:pagecheckerboard="0"
   inkscape:deskcolor="#505050"
   inkscape:zoom="0.99414062"
   inkscape:cx="157.92534"
   inkscape:cy="196.65226"
   inkscape:window-width="1366"
   inkscape:window-height="705"
   inkscape:window-x="-8"
   inkscape:window-y="-8"
   inkscape:window-maximized="1"
   inkscape:current-layer="Layer_1" />&#10;<style
   type="text/css"
   id="style1">&#10;	.st0{fill:#F4F4F3;}&#10;	.st1{fill:#EDECEB;}&#10;	.st2{fill:#F05458;}&#10;</style>&#10;<g
   id="g6"
   transform="translate(-97.8,-59.5)">&#10;	<g
   id="g2">&#10;		<path
   class="st0"
   d="m 414.2,121.5 v 317.6 c 0,7.4 -6,13.4 -13.4,13.4 H 111.2 c -7.4,0 -13.4,-6 -13.4,-13.4 V 72.9 c 0,-7.4 6,-13.4 13.4,-13.4 h 237.6 z"
   id="path1" />&#10;		<path
   class="st1"
   d="m 414.2,121.5 h -52.1 c -7.4,0 -13.4,-6 -13.4,-13.4 V 59.5 Z"
   id="path2" />&#10;	</g>&#10;	<rect
   x="97.800003"
   y="307.89999"
   class="st2"
   width="316.5"
   height="103.3"
   id="rect2" />&#10;	<g
   id="g5">&#10;		<path
   class="st0"
   d="m 188.6,366.9 h -13.3 v 20.3 c 0,2.9 -0.7,5.1 -2.1,6.6 -1.4,1.5 -3.1,2.2 -5.2,2.2 -2.2,0 -3.9,-0.7 -5.3,-2.2 -1.3,-1.5 -2,-3.7 -2,-6.5 V 332 c 0,-3.2 0.7,-5.5 2.2,-6.8 1.5,-1.3 3.8,-2.1 7,-2.1 h 18.6 c 5.5,0 9.7,0.4 12.7,1.3 2.9,0.8 5.5,2.2 7.6,4.1 2.1,1.9 3.8,4.2 4.9,6.9 1.1,2.7 1.7,5.8 1.7,9.2 0,7.3 -2.2,12.8 -6.7,16.6 -4.5,3.8 -11.2,5.7 -20.1,5.7 z m -3.5,-32.8 h -9.8 V 356 h 9.8 c 3.4,0 6.3,-0.4 8.6,-1.1 2.3,-0.7 4,-1.9 5.2,-3.5 1.2,-1.6 1.8,-3.8 1.8,-6.4 0,-3.2 -0.9,-5.7 -2.8,-7.7 -2,-2.2 -6.3,-3.2 -12.8,-3.2 z"
   id="path3" />&#10;		<path
   class="st0"
   d="m 236.5,323.2 h 18.9 c 4.9,0 9.1,0.5 12.6,1.4 3.5,0.9 6.7,2.6 9.6,5.1 7.5,6.4 11.2,16.1 11.2,29.1 0,4.3 -0.4,8.2 -1.1,11.8 -0.7,3.5 -1.9,6.7 -3.5,9.6 -1.6,2.8 -3.6,5.4 -6,7.6 -1.9,1.7 -4,3.1 -6.3,4.2 -2.3,1 -4.7,1.8 -7.3,2.2 -2.6,0.4 -5.6,0.6 -8.9,0.6 h -18.9 c -2.6,0 -4.6,-0.4 -6,-1.2 -1.3,-0.8 -2.2,-1.9 -2.6,-3.4 -0.4,-1.4 -0.6,-3.3 -0.6,-5.6 V 332 c 0,-3.1 0.7,-5.4 2.1,-6.8 1.4,-1.3 3.7,-2 6.8,-2 z m 5.6,11.4 v 48.6 h 11 c 2.4,0 4.3,-0.1 5.7,-0.2 1.4,-0.1 2.8,-0.5 4.2,-1 1.5,-0.5 2.7,-1.3 3.8,-2.2 4.8,-4.1 7.3,-11.2 7.3,-21.2 0,-7.1 -1.1,-12.4 -3.2,-15.9 -2.1,-3.5 -4.8,-5.8 -7.9,-6.7 -3.1,-1 -6.9,-1.4 -11.3,-1.4 z"
   id="path4" />&#10;		<path
   class="st0"
   d="m 344.3,334.3 h -28.6 v 18.3 h 23.9 c 2.2,0 3.9,0.5 5,1.5 1.1,1 1.6,2.3 1.6,4 0,1.7 -0.6,3 -1.7,4 -1.1,1 -2.8,1.5 -4.9,1.5 h -23.9 v 23.6 c 0,3 -0.7,5.2 -2,6.7 -1.4,1.4 -3.1,2.2 -5.2,2.2 -2.1,0 -3.9,-0.7 -5.2,-2.2 -1.4,-1.5 -2,-3.7 -2,-6.6 V 332 c 0,-2.1 0.3,-3.8 0.9,-5.1 0.6,-1.3 1.6,-2.3 2.9,-2.9 1.3,-0.6 3,-0.9 5.1,-0.9 h 34.2 c 2.3,0 4,0.5 5.2,1.5 1.2,1 1.7,2.4 1.7,4 0,1.7 -0.6,3.1 -1.7,4.1 -1.1,1 -3,1.6 -5.3,1.6 z"
   id="path5" />&#10;	</g>&#10;</g>&#10;</svg>
