<?xml version="1.0" encoding="UTF-8" standalone="no"?>
<svg
   version="1.1"
   id="Layer_1"
   x="0px"
   y="0px"
   viewBox="0 0 316.5 393"
   xml:space="preserve"
   sodipodi:docname="png.svg"
   width="316.5"
   height="393"
   inkscape:version="1.3 (0e150ed6c4, 2023-07-21)"
   xmlns:inkscape="http://www.inkscape.org/namespaces/inkscape"
   xmlns:sodipodi="http://sodipodi.sourceforge.net/DTD/sodipodi-0.dtd"
   xmlns="http://www.w3.org/2000/svg"
   xmlns:svg="http://www.w3.org/2000/svg"><defs
   id="defs3" /><sodipodi:namedview
   id="namedview3"
   pagecolor="#505050"
   bordercolor="#eeeeee"
   borderopacity="1"
   inkscape:showpageshadow="0"
   inkscape:pageopacity="0"
   inkscape:pagecheckerboard="0"
   inkscape:deskcolor="#505050"
   inkscape:zoom="0.99414062"
   inkscape:cx="157.92534"
   inkscape:cy="196.65226"
   inkscape:window-width="1366"
   inkscape:window-height="705"
   inkscape:window-x="-8"
   inkscape:window-y="-8"
   inkscape:window-maximized="1"
   inkscape:current-layer="Layer_1" />&#10;<style
   type="text/css"
   id="style1">&#10;	.st0{fill:#F4F4F3;}&#10;	.st1{fill:#EDECEB;}&#10;	.st2{fill:#528BC9;}&#10;</style>&#10;<g
   id="g3"
   transform="translate(-97.8,-59.5)">&#10;	<g
   id="g1">&#10;		<path
   class="st0"
   d="m 414.2,121.5 v 317.6 c 0,7.4 -6,13.4 -13.4,13.4 H 111.2 c -7.4,0 -13.4,-6 -13.4,-13.4 V 72.9 c 0,-7.4 6,-13.4 13.4,-13.4 h 237.6 z"
   id="id_101" />&#10;		<path
   class="st1"
   d="m 414.2,121.5 h -52.1 c -7.4,0 -13.4,-6 -13.4,-13.4 V 59.5 Z"
   id="id_102" />&#10;	</g>&#10;	<rect
   x="97.800003"
   y="307.89999"
   class="st2"
   width="316.5"
   height="103.3"
   id="id_103" />&#10;	<g
   id="g2">&#10;		<path
   class="st0"
   d="m 179.8,367.5 h -13.3 v 20.3 c 0,2.9 -0.7,5.1 -2.1,6.6 -1.4,1.5 -3.1,2.2 -5.2,2.2 -2.2,0 -3.9,-0.7 -5.3,-2.2 -1.3,-1.5 -2,-3.7 -2,-6.5 v -55.2 c 0,-3.2 0.7,-5.5 2.2,-6.8 1.5,-1.3 3.8,-2.1 7,-2.1 h 18.6 c 5.5,0 9.7,0.4 12.7,1.3 2.9,0.8 5.5,2.2 7.6,4.1 2.1,1.9 3.8,4.2 4.9,6.9 1.1,2.7 1.7,5.8 1.7,9.2 0,7.3 -2.2,12.8 -6.7,16.6 -4.5,3.8 -11.3,5.6 -20.1,5.6 z m -3.6,-32.8 h -9.8 v 21.9 h 9.8 c 3.4,0 6.3,-0.4 8.6,-1.1 2.3,-0.7 4,-1.9 5.2,-3.5 1.2,-1.6 1.8,-3.8 1.8,-6.4 0,-3.2 -0.9,-5.7 -2.8,-7.7 -2,-2.2 -6.3,-3.2 -12.8,-3.2 z"
   id="id_104" />&#10;		<path
   class="st0"
   d="m 237.6,331.2 27.9,42.2 v -42.6 c 0,-2.8 0.6,-4.8 1.8,-6.2 1.2,-1.4 2.8,-2.1 4.8,-2.1 2.1,0 3.7,0.7 4.9,2.1 1.2,1.4 1.8,3.5 1.8,6.2 v 56.3 c 0,6.3 -2.6,9.4 -7.8,9.4 -1.3,0 -2.5,-0.2 -3.5,-0.6 -1,-0.4 -2,-1 -2.9,-1.8 -0.9,-0.8 -1.8,-1.8 -2.5,-2.9 -0.8,-1.1 -1.6,-2.2 -2.3,-3.3 l -27.2,-41.7 v 41.9 c 0,2.7 -0.6,4.8 -1.9,6.2 -1.3,1.4 -2.9,2.1 -4.9,2.1 -2.1,0 -3.7,-0.7 -4.9,-2.1 -1.2,-1.4 -1.9,-3.5 -1.9,-6.2 V 333 c 0,-2.3 0.3,-4.2 0.8,-5.5 0.6,-1.5 1.6,-2.7 3.1,-3.6 1.4,-0.9 3,-1.4 4.6,-1.4 1.3,0 2.4,0.2 3.3,0.6 0.9,0.4 1.7,1 2.4,1.7 0.7,0.7 1.4,1.6 2.1,2.8 0.7,1.2 1.5,2.4 2.3,3.6 z"
   id="id_105" />&#10;		<path
   class="st0"
   d="M 360,366.3 V 380 c 0,1.8 -0.2,3.3 -0.5,4.4 -0.4,1.1 -1,2.1 -2,3 -1,0.9 -2.2,1.7 -3.7,2.5 -4.3,2.3 -8.5,4.1 -12.5,5.1 -4,1 -8.4,1.6 -13.1,1.6 -5.5,0 -10.5,-0.8 -15,-2.5 -4.5,-1.7 -8.4,-4.2 -11.6,-7.4 -3.2,-3.2 -5.6,-7.1 -7.3,-11.7 -1.7,-4.6 -2.6,-9.7 -2.6,-15.4 0,-5.6 0.8,-10.7 2.5,-15.3 1.7,-4.6 4.1,-8.5 7.3,-11.8 3.2,-3.3 7.1,-5.7 11.8,-7.4 4.6,-1.7 9.9,-2.6 15.7,-2.6 4.8,0 9.1,0.6 12.8,1.9 3.7,1.3 6.7,2.9 9,4.9 2.3,2 4.1,4 5.2,6.2 1.2,2.2 1.8,4.1 1.8,5.8 0,1.8 -0.7,3.4 -2,4.7 -1.4,1.3 -3,1.9 -4.9,1.9 -1,0 -2,-0.2 -3,-0.7 -1,-0.5 -1.8,-1.2 -2.4,-2.1 -1.8,-2.8 -3.3,-4.9 -4.5,-6.3 -1.2,-1.4 -2.9,-2.6 -5,-3.6 -2.1,-1 -4.8,-1.5 -8,-1.5 -3.4,0 -6.3,0.6 -9,1.7 -2.6,1.2 -4.9,2.8 -6.8,5 -1.9,2.2 -3.3,4.9 -4.3,8.1 -1,3.2 -1.5,6.7 -1.5,10.6 0,8.4 1.9,14.9 5.8,19.4 3.9,4.5 9.2,6.8 16.1,6.8 3.4,0 6.5,-0.4 9.4,-1.3 2.9,-0.9 5.9,-2.1 9,-3.8 v -11.6 h -11.2 c -2.7,0 -4.7,-0.4 -6.1,-1.2 -1.4,-0.8 -2.1,-2.2 -2.1,-4.2 0,-1.6 0.6,-2.9 1.7,-4 1.2,-1 2.7,-1.6 4.7,-1.6 h 16.5 c 2,0 3.7,0.2 5.1,0.5 1.4,0.4 2.5,1.2 3.4,2.4 0.9,1.4 1.3,3.3 1.3,5.8 z"
   id="id_106" />&#10;	</g>&#10;</g>&#10;</svg>
