<?xml version="1.0" encoding="UTF-8" standalone="no"?>
<!-- Created with Inkscape (http://www.inkscape.org/) -->

<svg
   width="500"
   height="500"
   viewBox="0 0 132.29166 132.29167"
   version="1.1"
   id="svg1"
   xmlns="http://www.w3.org/2000/svg"
   xmlns:svg="http://www.w3.org/2000/svg">
  <defs
     id="defs1" />
  <g
     id="layer1">
    <circle
       style="fill:#e6595d;stroke-width:1.11127;fill-opacity:1"
       cx="66.145828"
       cy="66.145828"
       r="66.145828"
       id="circle26" />
    <g
       id="g33"
       transform="matrix(1.1112651,0,0,1.1112651,-59.57604,-211.67045)">
      <g
         id="g30">
        <path
           style="fill:#a90000;fill-opacity:1"
           d="m 150.502,286.784 c -2.075,-7.379 -7.828,-13.154 -15.199,-15.258 l -13.597,-3.88 h -8.572 -8.572 l -13.597,3.88 c -7.371,2.103 -13.124,7.878 -15.199,15.258 l -3.741,6.239 c 10.686,10.214 25.159,16.5 41.11,16.5 15.95,0 30.423,-6.286 41.109,-16.5 z"
           id="path26" />
        <path
           style="fill:#f0f2f2"
           d="m 121.144,256.706 h -8.011 -8.011 l -2.525,13.217 c 0,0 4.52,4.738 10.535,4.988 6.015,-0.25 10.535,-4.988 10.535,-4.988 z"
           id="path27" />
        <path
           style="fill:#ffffff"
           d="m 131.054,238.161 c 0,10.833 -8.023,25.341 -17.921,25.341 -9.897,0 -17.921,-14.508 -17.921,-25.341 0,-10.833 8.023,-19.615 17.921,-19.615 9.898,-0.001 17.921,8.781 17.921,19.615 z"
           id="path28" />
        <path
           style="fill:#ffffff"
           d="m 97.482,239.673 c -0.085,2.117 -1.345,4.906 -2.758,4.849 -1.413,-0.057 -2.444,-2.938 -2.359,-5.055 0.085,-2.117 1.3,-3.787 2.713,-3.73 1.413,0.057 2.49,1.819 2.404,3.936 z"
           id="path29" />
        <path
           style="fill:#ffffff"
           d="m 133.572,239.485 c 0.072,2.117 -0.978,4.992 -2.391,5.04 -1.413,0.048 -2.655,-2.749 -2.727,-4.867 -0.072,-2.118 1.016,-3.873 2.429,-3.921 1.413,-0.048 2.617,1.63 2.689,3.748 z"
           id="path30" />
      </g>
      <path
         style="fill:none"
         d="m 120.662,225.001 c 0.22,0.627 0.74,1.11 1.317,1.44 0.577,0.33 1.217,0.529 1.84,0.759 0.767,0.284 1.526,0.626 2.159,1.144 0.633,0.518 1.135,1.233 1.264,2.042"
         id="path31" />
      <path
         style="fill:#990000;fill-opacity:1;stroke:#990000;stroke-width:0.238092;stroke-opacity:1"
         d="m 95.490092,236.21516 c 0,0 11.394868,-0.48196 17.410028,-9.07713 6.01745,8.56593 18.17431,9.0984 18.17431,9.0984 5.96399,-17.89198 -18.13054,-19.0347 -18.13054,-19.0347 0,0 -24.411791,1.53074 -17.453798,19.01343 z"
         id="path1" />
    </g>
    <ellipse
       style="fill:#990000;fill-opacity:1;stroke:#990000;stroke-width:0.227483;stroke-opacity:1"
       id="path2"
       transform="matrix(1,0,0.0147146,0.99989173,0,0)"
       ry="9.8222847"
       rx="14.128735"
       cy="28.971169"
       cx="65.124542" />
  </g>
</svg>
