<?xml version="1.0" encoding="UTF-8" standalone="no"?>
<!-- Created with Inkscape (http://www.inkscape.org/) -->

<svg
   width="500"
   height="500"
   viewBox="0 0 132.29166 132.29167"
   version="1.1"
   id="svg1"
   sodipodi:docname="woman.svg"
   inkscape:version="1.3 (0e150ed6c4, 2023-07-21)"
   xmlns:inkscape="http://www.inkscape.org/namespaces/inkscape"
   xmlns:sodipodi="http://sodipodi.sourceforge.net/DTD/sodipodi-0.dtd"
   xmlns="http://www.w3.org/2000/svg"
   xmlns:svg="http://www.w3.org/2000/svg">
  <sodipodi:namedview
     id="namedview1"
     pagecolor="#505050"
     bordercolor="#eeeeee"
     borderopacity="1"
     inkscape:showpageshadow="0"
     inkscape:pageopacity="0"
     inkscape:pagecheckerboard="0"
     inkscape:deskcolor="#505050"
     inkscape:zoom="0.7198347"
     inkscape:cx="297.29048"
     inkscape:cy="282.00919"
     inkscape:window-width="958"
     inkscape:window-height="1008"
     inkscape:window-x="1359"
     inkscape:window-y="0"
     inkscape:window-maximized="0"
     inkscape:current-layer="svg1" />
  <defs
     id="defs1" />
  <circle
     style="fill:#e6595d;stroke-width:1.11127;fill-opacity:1"
     cx="66.245842"
     cy="66.145828"
     r="66.145828"
     id="circle20" />
  <path
     style="fill:#990000;fill-opacity:1;stroke-width:1.11127"
     d="m 46.145282,61.448507 c 0,0 2.977079,11.896093 -1.648006,20.954015 0,0 21.236276,4.950686 43.048187,-0.515627 0,0 -4.148352,-9.623556 -1.600222,-20.859557 z"
     id="path20" />
  <path
     style="fill:#a90000;fill-opacity:1;stroke-width:1.11127"
     d="M 107.7716,107.0226 C 105.46572,98.822575 99.072616,92.405019 90.881481,90.066918 L 75.771609,85.755209 h -9.525764 -9.525764 l -15.109872,4.311709 c -8.191135,2.33699 -14.584243,8.754546 -16.890118,16.955682 l -4.157243,6.93318 c 11.87609,11.35047 27.95943,18.33588 45.684108,18.33588 17.724679,0 33.808014,-6.98541 45.682994,-18.33588 z"
     id="path21" />
  <path
     style="fill:#f0f2f2;stroke-width:1.11127"
     d="M 75.14819,73.597969 H 66.245845 57.3435 L 54.537556,88.28556 c 0,0 5.022918,5.265174 11.708289,5.54299 6.685371,-0.277816 11.707178,-5.54299 11.707178,-5.54299 z"
     id="path22" />
  <path
     style="fill:#ffffff;stroke-width:1.11127"
     d="m 86.160827,52.989557 c 0,12.038335 -8.91568,28.160569 -19.914982,28.160569 -10.998191,0 -19.914982,-16.122234 -19.914982,-28.160569 0,-12.038334 8.91568,-21.797464 19.914982,-21.797464 10.998191,-0.0011 19.914982,9.758018 19.914982,21.797464 z"
     id="path23" />
  <path
     style="fill:#990000;fill-opacity:1;stroke-width:1.11127"
     d="m 57.365726,36.413927 c 0.22003,-0.150021 0.258924,-0.464509 0.38672,-0.695652 2.633698,0.754549 5.080704,2.023614 7.704401,2.809278 22.818717,6.836503 17.381297,30.809825 17.450196,34.668138 4.63842,-10.28587 7.086537,-13.321846 7.221,-20.867336 0.09668,-5.420751 -0.545631,-10.940405 -2.710375,-15.912205 -2.164745,-4.9718 -5.976384,-9.365742 -10.971521,-11.476035 -6.437558,-2.720377 -15.664392,-0.910126 -18.948181,5.764132 -2.848172,-1.164606 -5.935267,-2.349214 -8.923459,-1.616891 -2.762605,0.676761 -4.935128,2.947075 -6.094177,5.544102 -1.15905,2.597027 -1.430199,5.499651 -1.461314,8.343378 -0.03889,3.621613 0.286706,7.24656 0.970134,10.80372 1.239061,6.440892 5.496318,12.879562 4.967355,19.417135 6.753158,-12.168353 -5.470758,-25.901367 10.409221,-36.781764 z"
     id="path24" />
  <path
     style="fill:#990000;fill-opacity:1;stroke-width:1.11127"
     d="m 86.326405,58.817032 c 0,0 -0.756771,11.165991 4.846227,22.333094 h -2.423669 c 0,0 -2.957076,-3.73385 -4.829558,-8.88123 z"
     id="path25" />
</svg>
